<svg version="1.1" id="Layer_1" xmlns="http://www.w3.org/2000/svg" xmlns:xlink="http://www.w3.org/1999/xlink" x="0px" y="0px"
	 width="100%" viewBox="0 0 512 512" enable-background="new 0 0 512 512" xml:space="preserve">
<path fill="#54ABDD" opacity="1.000000" stroke="none" 
	d="
M513.000000,227.000000 
	C513.000000,247.020889 513.000000,267.041779 512.655640,287.203094 
	C511.208557,292.864502 510.016846,298.369446 509.018738,303.909271 
	C505.001953,326.203278 498.671844,347.863373 488.272705,367.955627 
	C480.604614,382.771210 471.787659,397.100372 462.303619,410.832001 
	C455.345123,420.906982 446.896606,430.071198 438.331635,438.882629 
	C430.797028,446.634094 422.416229,453.628876 413.958832,460.394958 
	C408.048309,465.123505 401.378632,468.903076 394.883362,472.715485 
	C394.479126,470.030365 394.036865,467.736694 394.031433,465.442017 
	C393.978394,443.017395 393.998230,420.592560 394.457306,398.094055 
	C396.747192,398.012451 398.577148,397.998138 400.407074,397.997833 
	C413.033173,397.995667 417.997620,393.082062 417.997681,380.579681 
	C417.998047,324.015564 417.962463,267.451385 418.055237,210.887421 
	C418.064056,205.518478 416.725189,200.938217 413.118530,196.719421 
	C413.521545,193.864532 413.966797,191.401413 413.969330,188.937820 
	C414.012177,147.195358 413.981323,105.452820 414.044617,63.710411 
	C414.048584,61.101742 414.694733,58.494049 415.359009,56.025871 
	C425.613068,65.442780 435.767273,74.500305 445.429077,84.055679 
	C456.010406,94.520386 464.615997,106.566628 472.741913,119.056732 
	C483.877136,136.172379 492.573914,154.365601 499.213379,173.596573 
	C504.995209,190.343399 509.300751,207.442352 511.082489,225.125076 
	C511.151276,225.807510 512.335510,226.377579 513.000000,227.000000 
z"/>
<path fill="#57C5DF" opacity="1.000000" stroke="none" 
	d="
M0.999999,292.000000 
	C1.000000,269.312439 1.000000,246.624878 1.328891,223.809753 
	C2.102640,222.682205 2.721868,221.722946 2.966154,220.676163 
	C6.525064,205.426147 8.839213,189.755356 13.885285,175.018723 
	C19.094624,159.805313 26.271652,145.140121 33.800133,130.874878 
	C46.034084,107.693504 62.416721,87.539993 82.215363,70.150482 
	C83.358421,73.063881 84.894371,75.776306 84.897072,78.490250 
	C85.016182,198.040939 85.000069,317.591736 84.998383,437.142548 
	C84.998360,438.474365 85.355682,439.971741 84.867081,441.096924 
	C84.228889,442.566589 82.912369,443.741699 81.581589,444.915100 
	C72.621849,435.493286 63.265923,426.749878 55.464867,416.788757 
	C40.510082,397.693176 27.948544,377.027832 19.054501,354.319153 
	C11.404866,334.787750 5.490229,314.792084 2.914356,293.896271 
	C2.828050,293.196167 1.662491,292.629089 0.999999,292.000000 
z"/>
<path fill="#000000" opacity="1.000000" stroke="none" 
	d="
M513.000000,226.531342 
	C512.335510,226.377579 511.151276,225.807510 511.082489,225.125076 
	C509.300751,207.442352 504.995209,190.343399 499.213379,173.596573 
	C492.573914,154.365601 483.877136,136.172379 472.741913,119.056732 
	C464.615997,106.566628 456.010406,94.520386 445.429077,84.055679 
	C435.767273,74.500305 425.613068,65.442780 415.222412,55.714401 
	C414.294708,54.803295 413.880707,54.250893 413.337250,53.897610 
	C401.566376,46.245392 390.090332,38.069096 377.894653,31.164513 
	C369.109344,26.190701 359.361511,22.917000 349.866638,18.563049 
	C345.930878,16.830814 342.231873,15.224549 338.401703,14.043970 
	C321.401001,8.803837 304.256317,4.196401 286.401123,2.882654 
	C285.890686,2.845097 285.465118,1.653498 285.000000,1.000002 
	C360.926727,1.000000 436.853424,1.000000 513.000000,1.000000 
	C513.000000,76.020752 513.000000,151.041718 513.000000,226.531342 
z"/>
<path fill="#000000" opacity="1.000000" stroke="none" 
	d="
M81.893051,69.950218 
	C62.416721,87.539993 46.034084,107.693504 33.800133,130.874878 
	C26.271652,145.140121 19.094624,159.805313 13.885285,175.018723 
	C8.839213,189.755356 6.525064,205.426147 2.966154,220.676163 
	C2.721868,221.722946 2.102640,222.682205 1.328891,223.341095 
	C1.000000,149.072144 1.000000,75.144295 1.000000,1.000000 
	C76.354088,1.000000 151.708389,1.000000 227.863525,1.344171 
	C224.739243,2.458515 220.802979,3.176538 216.891495,4.010740 
	C210.585327,5.355663 204.295471,6.777164 197.595703,8.095714 
	C194.384109,8.685312 191.549866,9.252548 188.771301,10.021187 
	C173.591553,14.220406 158.714264,19.216854 144.529846,26.979885 
	C132.086670,34.187885 119.643654,40.827759 108.047394,48.712898 
	C98.794067,55.004902 90.572563,62.814346 81.893051,69.950218 
z"/>
<path fill="#000000" opacity="1.000000" stroke="none" 
	d="
M395.048035,473.106506 
	C401.378632,468.903076 408.048309,465.123505 413.958832,460.394958 
	C422.416229,453.628876 430.797028,446.634094 438.331635,438.882629 
	C446.896606,430.071198 455.345123,420.906982 462.303619,410.832001 
	C471.787659,397.100372 480.604614,382.771210 488.272705,367.955627 
	C498.671844,347.863373 505.001953,326.203278 509.018738,303.909271 
	C510.016846,298.369446 511.208557,292.864502 512.655640,287.671753 
	C513.000000,362.926361 513.000000,437.852753 513.000000,513.000000 
	C439.645935,513.000000 366.291626,513.000000 292.136261,512.661011 
	C292.339569,511.883698 293.306702,511.216583 294.354645,511.046021 
	C299.328461,510.236542 304.399109,509.893158 309.299744,508.784576 
	C334.814270,503.013000 359.252319,494.288513 382.086060,481.390320 
	C386.544067,478.872162 390.734283,475.880005 395.048035,473.106506 
z"/>
<path fill="#000000" opacity="1.000000" stroke="none" 
	d="
M0.999999,292.468658 
	C1.662491,292.629089 2.828050,293.196167 2.914356,293.896271 
	C5.490229,314.792084 11.404866,334.787750 19.054501,354.319153 
	C27.948544,377.027832 40.510082,397.693176 55.464867,416.788757 
	C63.265923,426.749878 72.621849,435.493286 81.719391,445.229218 
	C90.907051,452.743561 99.166740,460.550476 108.514091,466.705658 
	C120.883614,474.850891 134.104294,481.703552 147.125046,489.430664 
	C160.550659,494.687286 173.693710,499.977631 187.117889,504.418121 
	C194.120773,506.734497 201.618668,507.554260 209.107697,509.404816 
	C212.795715,510.188141 216.281219,510.544067 219.729126,511.123779 
	C220.243362,511.210236 220.580795,512.348389 221.000000,513.000000 
	C147.739471,513.000000 74.478943,513.000000 1.000000,513.000000 
	C1.000000,439.645905 1.000000,366.291626 0.999999,292.468658 
z"/>
<path fill="#56B8DE" opacity="1.000000" stroke="none" 
	d="
M221.468658,513.000000 
	C220.580795,512.348389 220.243362,511.210236 219.729126,511.123779 
	C216.281219,510.544067 212.795715,510.188141 209.418320,509.196472 
	C210.342773,505.714752 211.883148,502.798584 211.893158,499.877167 
	C212.046082,455.307373 211.998993,410.736908 212.462250,366.093414 
	C238.949875,366.069000 264.973816,366.117767 290.899872,366.529358 
	C290.201324,369.766754 289.084106,372.640076 289.077240,375.516022 
	C288.967621,421.343811 289.000031,467.171936 289.000000,513.000000 
	C266.645782,513.000000 244.291550,513.000000 221.468658,513.000000 
z"/>
<path fill="#55B3DE" opacity="1.000000" stroke="none" 
	d="
M289.375000,513.000000 
	C289.000031,467.171936 288.967621,421.343811 289.077240,375.516022 
	C289.084106,372.640076 290.201324,369.766754 291.337189,366.456360 
	C294.134064,365.654510 295.166138,366.347626 295.055969,368.900452 
	C294.862213,373.391144 295.258820,377.913879 294.951202,382.391815 
	C294.229095,392.903748 301.635925,398.166992 310.525787,398.098114 
	C338.347778,397.882629 366.173248,398.111267 393.997345,398.167816 
	C393.998230,420.592560 393.978394,443.017395 394.031433,465.442017 
	C394.036865,467.736694 394.479126,470.030365 394.883362,472.715515 
	C390.734283,475.880005 386.544067,478.872162 382.086060,481.390320 
	C359.252319,494.288513 334.814270,503.013000 309.299744,508.784576 
	C304.399109,509.893158 299.328461,510.236542 294.354645,511.046021 
	C293.306702,511.216583 292.339569,511.883698 291.667603,512.661011 
	C291.250000,513.000000 290.500000,513.000000 289.375000,513.000000 
z"/>
<path fill="#55B4DE" opacity="1.000000" stroke="none" 
	d="
M284.535339,1.000002 
	C285.465118,1.653498 285.890686,2.845097 286.401123,2.882654 
	C304.256317,4.196401 321.401001,8.803837 338.401703,14.043970 
	C342.231873,15.224549 345.930878,16.830814 349.857269,19.038969 
	C350.016205,48.052483 350.048431,76.268280 349.955475,104.483673 
	C349.941925,108.601349 349.331421,112.717064 348.533386,116.904388 
	C322.712463,116.927742 297.355255,116.880394 271.998535,116.374855 
	C271.999359,82.060303 272.036285,48.203861 271.955719,14.347696 
	C271.945099,9.897731 271.333313,5.449197 271.000000,1.000000 
	C275.356903,1.000000 279.713806,1.000000 284.535339,1.000002 
z"/>
<path fill="#56B9DE" opacity="1.000000" stroke="none" 
	d="
M270.531342,1.000000 
	C271.333313,5.449197 271.945099,9.897731 271.955719,14.347696 
	C272.036285,48.203861 271.999359,82.060303 271.534760,116.445953 
	C246.379883,116.927940 221.689285,116.880638 197.009064,116.417358 
	C197.346298,111.368881 197.943954,106.737106 197.956284,102.103775 
	C198.039673,70.791473 197.999161,39.478844 197.998734,8.166319 
	C204.295471,6.777164 210.585327,5.355663 216.891495,4.010740 
	C220.802979,3.176538 224.739243,2.458515 228.332184,1.344171 
	C242.020889,1.000000 256.041779,1.000000 270.531342,1.000000 
z"/>
<path fill="#000000" opacity="1.000000" stroke="none" 
	d="
M196.998672,116.833336 
	C221.689285,116.880638 246.379883,116.927940 271.534302,116.904144 
	C297.355255,116.880394 322.712463,116.927742 348.997223,116.977448 
	C357.585815,116.987114 365.294312,117.538696 372.896881,116.875725 
	C384.664551,115.849510 390.909943,125.016769 390.980713,135.279099 
	C391.065735,147.602890 391.000824,159.927689 391.000824,172.252060 
	C391.000824,179.364548 391.000793,186.477036 391.000793,192.544037 
	C398.776306,194.161545 405.865509,195.636261 412.954712,197.110977 
	C416.725189,200.938217 418.064056,205.518478 418.055237,210.887421 
	C417.962463,267.451385 417.998047,324.015564 417.997681,380.579681 
	C417.997620,393.082062 413.033173,397.995667 400.407074,397.997833 
	C398.577148,397.998138 396.747192,398.012451 394.457306,398.094055 
	C366.173248,398.111267 338.347778,397.882629 310.525787,398.098114 
	C301.635925,398.166992 294.229095,392.903748 294.951202,382.391815 
	C295.258820,377.913879 294.862213,373.391144 295.055969,368.900452 
	C295.166138,366.347626 294.134064,365.654510 291.435059,366.093506 
	C264.973816,366.117767 238.949875,366.069000 211.998474,366.022034 
	C190.046432,366.071503 169.021881,366.119171 147.533630,366.095551 
	C138.904846,366.016235 130.727844,366.286591 122.577240,365.938568 
	C108.350540,365.331055 96.620277,353.998383 96.092659,340.713531 
	C95.649956,329.566467 95.961319,318.387665 96.024406,307.223358 
	C96.045601,303.471588 97.269623,300.496216 101.591087,299.796448 
	C103.093246,299.553192 104.521851,298.855743 106.000191,298.360352 
	C106.000191,242.957703 105.995758,187.804901 106.004410,132.652100 
	C106.005913,123.091805 112.027756,117.048347 121.513382,116.997177 
	C130.008163,116.951355 138.502853,116.888344 147.461334,116.906288 
	C164.282928,116.930885 180.640808,116.882111 196.998672,116.833336 
M195.925018,351.979736 
	C228.839050,351.979736 261.753082,351.979736 294.673187,351.979736 
	C294.673187,347.366302 294.673187,343.309875 294.673187,339.165527 
	C261.232147,339.165527 228.114594,339.165527 194.070038,339.023621 
	C188.906799,339.016113 183.740143,338.889282 178.581375,339.037415 
	C174.130768,339.165222 171.397461,336.982513 170.077072,333.026001 
	C168.235291,327.507294 166.596146,321.917664 165.004730,316.320190 
	C164.333939,313.960785 163.248611,312.879242 160.566940,312.929901 
	C151.409531,313.102875 142.246841,312.995636 133.086166,312.995514 
	C125.486031,312.995392 117.885895,312.995514 109.995613,312.995514 
	C109.995613,321.530884 110.049393,329.498108 109.981155,337.464325 
	C109.906334,346.199432 115.083138,351.853149 124.055664,351.922028 
	C147.701355,352.103699 171.350082,351.889435 195.925018,351.979736 
M317.069946,131.024780 
	C297.045959,131.072266 277.021942,131.119766 256.070557,131.024277 
	C235.379608,131.071930 214.688644,131.119583 193.070312,131.024445 
	C168.812927,131.024445 144.555542,131.024445 120.304619,131.024445 
	C120.304619,187.300598 120.304619,243.012329 120.304619,298.833740 
	C145.074036,298.833740 169.535858,298.833740 194.925201,298.980164 
	C215.282791,298.931488 235.640366,298.882782 256.925568,298.979645 
	C269.510895,298.979645 282.096191,298.979645 294.999237,298.979645 
	C294.999237,297.287567 294.999237,296.152374 294.999237,295.017181 
	C294.999268,266.393219 294.986237,237.769257 295.007935,209.145325 
	C295.013885,201.271973 298.496490,196.703125 306.304749,195.000366 
	C310.106323,194.171356 314.094055,194.195923 318.925140,193.979965 
	C337.843933,193.979965 356.762695,193.979965 375.681885,193.979965 
	C375.681885,172.699127 375.681885,151.986450 375.681885,131.166733 
	C356.242645,131.166733 337.120056,131.166733 317.069946,131.024780 
M309.012146,382.244476 
	C310.626404,382.830963 312.238831,383.923126 313.855133,383.928894 
	C342.339844,384.029938 370.825012,384.001495 399.310089,383.986816 
	C400.756042,383.986084 402.201935,383.856812 403.707458,383.784515 
	C403.707458,325.409393 403.707458,267.370544 403.707458,209.360092 
	C392.077179,208.228546 391.358307,208.673141 389.033264,218.231400 
	C387.480988,224.612808 384.840424,226.949066 378.614410,226.978104 
	C363.789154,227.047241 348.963165,227.040558 334.137878,226.974472 
	C329.025024,226.951691 325.499359,224.597397 323.981476,219.487335 
	C322.937439,215.972595 321.668396,212.524704 320.566742,209.245880 
	C316.600555,209.245880 312.995331,209.245880 308.999023,209.245880 
	C308.999023,266.757599 308.999023,324.020905 309.012146,382.244476 
M256.500000,324.998993 
	C269.242828,324.998993 281.985626,324.998993 294.660767,324.998993 
	C294.660767,320.651123 294.660767,316.928680 294.660767,313.207886 
	C255.952011,313.207886 217.578629,313.207886 178.603363,313.207886 
	C179.466049,315.680237 180.767502,317.779846 180.825256,319.913177 
	C180.947418,324.425812 183.197403,325.108032 187.133118,325.080536 
	C209.921158,324.921082 232.710861,325.000671 256.500000,324.998993 
M372.295837,211.999359 
	C373.921326,211.701920 375.546814,211.404465 377.172272,211.107025 
	C377.068298,210.512527 376.964294,209.918015 376.860291,209.323517 
	C363.076874,209.323517 349.293457,209.323517 335.510010,209.323517 
	C335.422791,209.782623 335.335571,210.241730 335.248352,210.700836 
	C336.800262,211.134399 338.348358,211.927094 339.904633,211.943512 
	C350.381042,212.054153 360.859131,212.000092 372.295837,211.999359 
z"/>
<path fill="#54AFDD" opacity="1.000000" stroke="none" 
	d="
M413.118530,196.719421 
	C405.865509,195.636261 398.776306,194.161545 391.000793,192.544037 
	C391.000793,186.477036 391.000824,179.364548 391.000824,172.252060 
	C391.000824,159.927689 391.065735,147.602890 390.980713,135.279099 
	C390.909943,125.016769 384.664551,115.849510 372.896881,116.875725 
	C365.294312,117.538696 357.585815,116.987114 349.460968,116.906754 
	C349.331421,112.717064 349.941925,108.601349 349.955475,104.483673 
	C350.048431,76.268280 350.016205,48.052483 350.033630,19.360893 
	C359.361511,22.917000 369.109344,26.190701 377.894653,31.164513 
	C390.090332,38.069096 401.566376,46.245392 413.337250,53.897610 
	C413.880707,54.250893 414.294708,54.803295 414.905548,55.574432 
	C414.694733,58.494049 414.048584,61.101742 414.044617,63.710411 
	C413.981323,105.452820 414.012177,147.195358 413.969330,188.937820 
	C413.966797,191.401413 413.521545,193.864532 413.118530,196.719421 
z"/>
<path fill="#57C1DF" opacity="1.000000" stroke="none" 
	d="
M146.997589,116.832916 
	C138.502853,116.888344 130.008163,116.951355 121.513382,116.997177 
	C112.027756,117.048347 106.005913,123.091805 106.004410,132.652100 
	C105.995758,187.804901 106.000191,242.957703 106.000191,298.360352 
	C104.521851,298.855743 103.093246,299.553192 101.591087,299.796448 
	C97.269623,300.496216 96.045601,303.471588 96.024406,307.223358 
	C95.961319,318.387665 95.649956,329.566467 96.092659,340.713531 
	C96.620277,353.998383 108.350540,365.331055 122.577240,365.938568 
	C130.727844,366.286591 138.904846,366.016235 147.534271,366.553589 
	C147.999069,405.152008 148.019913,443.221130 147.955231,481.290100 
	C147.950806,483.897888 147.306076,486.504578 146.959122,489.111786 
	C134.104294,481.703552 120.883614,474.850891 108.514091,466.705658 
	C99.166740,460.550476 90.907051,452.743561 82.025482,445.357635 
	C82.912369,443.741699 84.228889,442.566589 84.867081,441.096924 
	C85.355682,439.971741 84.998360,438.474365 84.998383,437.142548 
	C85.000069,317.591736 85.016182,198.040939 84.897072,78.490250 
	C84.894371,75.776306 83.358421,73.063881 82.215363,70.150482 
	C90.572563,62.814346 98.794067,55.004902 108.047394,48.712898 
	C119.643654,40.827759 132.086670,34.187885 144.772400,27.321430 
	C145.587036,29.597351 145.969681,31.562061 145.973129,33.527435 
	C146.014633,57.166550 145.952545,80.805946 146.044876,104.444778 
	C146.061005,108.575333 146.665070,112.703598 146.997589,116.832916 
z"/>
<path fill="#56BDDE" opacity="1.000000" stroke="none" 
	d="
M147.461334,116.906288 
	C146.665070,112.703598 146.061005,108.575333 146.044876,104.444778 
	C145.952545,80.805946 146.014633,57.166550 145.973129,33.527435 
	C145.969681,31.562061 145.587036,29.597351 145.138031,27.290785 
	C158.714264,19.216854 173.591553,14.220406 188.771301,10.021187 
	C191.549866,9.252548 194.384109,8.685312 197.595703,8.095714 
	C197.999161,39.478844 198.039673,70.791473 197.956284,102.103775 
	C197.943954,106.737106 197.346298,111.368881 197.009064,116.417358 
	C180.640808,116.882111 164.282928,116.930885 147.461334,116.906288 
z"/>
<path fill="#56BCDE" opacity="1.000000" stroke="none" 
	d="
M147.125046,489.430664 
	C147.306076,486.504578 147.950806,483.897888 147.955231,481.290100 
	C148.019913,443.221130 147.999069,405.152008 147.997955,366.624878 
	C169.021881,366.119171 190.046432,366.071503 211.534790,366.095215 
	C211.998993,410.736908 212.046082,455.307373 211.893158,499.877167 
	C211.883148,502.798584 210.342773,505.714752 209.203613,508.841675 
	C201.618668,507.554260 194.120773,506.734497 187.117889,504.418121 
	C173.693710,499.977631 160.550659,494.687286 147.125046,489.430664 
z"/>
<path fill="#55B1DE" opacity="1.000000" stroke="none" 
	d="
M309.005585,381.764343 
	C308.999023,324.020905 308.999023,266.757599 308.999023,209.245880 
	C312.995331,209.245880 316.600555,209.245880 320.566742,209.245880 
	C321.668396,212.524704 322.937439,215.972595 323.981476,219.487335 
	C325.499359,224.597397 329.025024,226.951691 334.137878,226.974472 
	C348.963165,227.040558 363.789154,227.047241 378.614410,226.978104 
	C384.840424,226.949066 387.480988,224.612808 389.033264,218.231400 
	C391.358307,208.673141 392.077179,208.228546 403.707458,209.360092 
	C403.707458,267.370544 403.707458,325.409393 403.707458,383.784515 
	C402.201935,383.856812 400.756042,383.986084 399.310089,383.986816 
	C370.825012,384.001495 342.339844,384.029938 313.855133,383.928894 
	C312.238831,383.923126 310.626404,382.830963 309.005585,381.764343 
M364.373901,376.000336 
	C366.033508,375.999969 367.696716,376.070435 369.351990,375.985565 
	C373.801300,375.757446 377.098694,372.611237 377.000122,368.766449 
	C376.901978,364.937988 373.496765,362.017487 369.027283,362.005249 
	C360.895325,361.983002 352.763275,361.993744 344.631256,362.003113 
	C339.252777,362.009277 335.951508,364.737885 336.002838,369.107117 
	C336.049316,373.063477 339.520508,375.938843 344.485931,375.984406 
	C350.791870,376.042297 357.098755,375.999542 364.373901,376.000336 
z"/>
<path fill="#56BEDE" opacity="1.000000" stroke="none" 
	d="
M193.997681,298.833740 
	C169.535858,298.833740 145.074036,298.833740 120.304619,298.833740 
	C120.304619,243.012329 120.304619,187.300598 120.304619,131.024445 
	C144.555542,131.024445 168.812927,131.024445 193.534546,131.553864 
	C193.998413,187.666763 193.998047,243.250259 193.997681,298.833740 
z"/>
<path fill="#56B9DE" opacity="1.000000" stroke="none" 
	d="
M194.461441,298.906952 
	C193.998047,243.250259 193.998413,187.666763 193.998230,131.625259 
	C214.688644,131.119583 235.379608,131.071930 256.524597,131.511719 
	C256.652435,136.632797 256.048767,141.266068 256.042542,145.900146 
	C255.974075,196.878052 255.998642,247.856079 255.997955,298.834076 
	C235.640366,298.882782 215.282791,298.931488 194.461441,298.906952 
z"/>
<path fill="#55B6DE" opacity="1.000000" stroke="none" 
	d="
M256.461761,298.906860 
	C255.998642,247.856079 255.974075,196.878052 256.042542,145.900146 
	C256.048767,141.266068 256.652435,136.632797 256.988281,131.583206 
	C277.021942,131.119766 297.045959,131.072266 317.534363,131.553802 
	C317.998352,152.666580 317.997925,173.250336 317.997498,193.834091 
	C314.094055,194.195923 310.106323,194.171356 306.304749,195.000366 
	C298.496490,196.703125 295.013885,201.271973 295.007935,209.145325 
	C294.986237,237.769257 294.999268,266.393219 294.999237,295.017181 
	C294.999237,296.152374 294.999237,297.287567 294.999237,298.979645 
	C282.096191,298.979645 269.510895,298.979645 256.461761,298.906860 
z"/>
<path fill="#55B1DE" opacity="1.000000" stroke="none" 
	d="
M318.461304,193.907028 
	C317.997925,173.250336 317.998352,152.666580 317.998108,131.624786 
	C337.120056,131.166733 356.242645,131.166733 375.681885,131.166733 
	C375.681885,151.986450 375.681885,172.699127 375.681885,193.979965 
	C356.762695,193.979965 337.843933,193.979965 318.461304,193.907028 
z"/>
<path fill="#56BEDE" opacity="1.000000" stroke="none" 
	d="
M194.997604,351.832855 
	C171.350082,351.889435 147.701355,352.103699 124.055664,351.922028 
	C115.083138,351.853149 109.906334,346.199432 109.981155,337.464325 
	C110.049393,329.498108 109.995613,321.530884 109.995613,312.995514 
	C117.885895,312.995514 125.486031,312.995392 133.086166,312.995514 
	C142.246841,312.995636 151.409531,313.102875 160.566940,312.929901 
	C163.248611,312.879242 164.333939,313.960785 165.004730,316.320190 
	C166.596146,321.917664 168.235291,327.507294 170.077072,333.026001 
	C171.397461,336.982513 174.130768,339.165222 178.581375,339.037415 
	C183.740143,338.889282 188.906799,339.016113 194.534332,339.545441 
	C194.998276,343.989136 194.997940,347.910980 194.997604,351.832855 
z"/>
<path fill="#56B9DE" opacity="1.000000" stroke="none" 
	d="
M256.000000,324.999146 
	C232.710861,325.000671 209.921158,324.921082 187.133118,325.080536 
	C183.197403,325.108032 180.947418,324.425812 180.825256,319.913177 
	C180.767502,317.779846 179.466049,315.680237 178.603363,313.207886 
	C217.578629,313.207886 255.952011,313.207886 294.660767,313.207886 
	C294.660767,316.928680 294.660767,320.651123 294.660767,324.998993 
	C281.985626,324.998993 269.242828,324.998993 256.000000,324.999146 
z"/>
<path fill="#56B8DE" opacity="1.000000" stroke="none" 
	d="
M195.461304,351.906311 
	C194.997940,347.910980 194.998276,343.989136 194.997833,339.616394 
	C228.114594,339.165527 261.232147,339.165527 294.673187,339.165527 
	C294.673187,343.309875 294.673187,347.366302 294.673187,351.979736 
	C261.753082,351.979736 228.839050,351.979736 195.461304,351.906311 
z"/>
<path fill="#55B1DE" opacity="1.000000" stroke="none" 
	d="
M371.816284,211.999359 
	C360.859131,212.000092 350.381042,212.054153 339.904633,211.943512 
	C338.348358,211.927094 336.800262,211.134399 335.248352,210.700836 
	C335.335571,210.241730 335.422791,209.782623 335.510010,209.323517 
	C349.293457,209.323517 363.076874,209.323517 376.860291,209.323517 
	C376.964294,209.918015 377.068298,210.512527 377.172272,211.107025 
	C375.546814,211.404465 373.921326,211.701920 371.816284,211.999359 
z"/>
<path fill="#000000" opacity="1.000000" stroke="none" 
	d="
M363.889557,376.000244 
	C357.098755,375.999542 350.791870,376.042297 344.485931,375.984406 
	C339.520508,375.938843 336.049316,373.063477 336.002838,369.107117 
	C335.951508,364.737885 339.252777,362.009277 344.631256,362.003113 
	C352.763275,361.993744 360.895325,361.983002 369.027283,362.005249 
	C373.496765,362.017487 376.901978,364.937988 377.000122,368.766449 
	C377.098694,372.611237 373.801300,375.757446 369.351990,375.985565 
	C367.696716,376.070435 366.033508,375.999969 363.889557,376.000244 
z"/>
</svg>